<mxfile host="Electron" modified="2023-05-16T13:39:05.825Z" agent="Mozilla/5.0 (Windows NT 10.0; Win64; x64) AppleWebKit/537.36 (KHTML, like Gecko) draw.io/21.2.8 Chrome/112.0.5615.165 Electron/24.2.0 Safari/537.36" etag="YNXxU_pXe43pRnWGEWqZ" version="21.2.8" type="device" pages="8">
  <diagram id="C5RBs43oDa-KdzZeNtuy" name="Page-1">
    <mxGraphModel dx="864" dy="516" grid="1" gridSize="10" guides="1" tooltips="1" connect="1" arrows="1" fold="1" page="1" pageScale="1" pageWidth="827" pageHeight="1169" math="0" shadow="0">
      <root>
        <mxCell id="WIyWlLk6GJQsqaUBKTNV-0" />
        <mxCell id="WIyWlLk6GJQsqaUBKTNV-1" parent="WIyWlLk6GJQsqaUBKTNV-0" />
        <mxCell id="Z9cJgejyRqe7Ohu0V2KV-4" value="USE CASE ID" style="rounded=0;whiteSpace=wrap;html=1;" parent="WIyWlLk6GJQsqaUBKTNV-1" vertex="1">
          <mxGeometry x="60" y="80" width="120" height="20" as="geometry" />
        </mxCell>
        <mxCell id="Z9cJgejyRqe7Ohu0V2KV-6" value="KLOTSKI_UC1" style="rounded=0;whiteSpace=wrap;html=1;align=left;" parent="WIyWlLk6GJQsqaUBKTNV-1" vertex="1">
          <mxGeometry x="180" y="80" width="270" height="20" as="geometry" />
        </mxCell>
        <mxCell id="Z9cJgejyRqe7Ohu0V2KV-7" value="NOME USE CASE" style="rounded=0;whiteSpace=wrap;html=1;" parent="WIyWlLk6GJQsqaUBKTNV-1" vertex="1">
          <mxGeometry x="60" y="100" width="120" height="20" as="geometry" />
        </mxCell>
        <mxCell id="Z9cJgejyRqe7Ohu0V2KV-8" value="MOVIMENTO BLOCCO" style="rounded=0;whiteSpace=wrap;html=1;align=left;" parent="WIyWlLk6GJQsqaUBKTNV-1" vertex="1">
          <mxGeometry x="180" y="100" width="270" height="20" as="geometry" />
        </mxCell>
        <mxCell id="Z9cJgejyRqe7Ohu0V2KV-9" value="DESCRIZIONE" style="rounded=0;whiteSpace=wrap;html=1;" parent="WIyWlLk6GJQsqaUBKTNV-1" vertex="1">
          <mxGeometry x="60" y="120" width="120" height="150" as="geometry" />
        </mxCell>
        <mxCell id="Z9cJgejyRqe7Ohu0V2KV-10" value="Questa use case permette ad un player umano di spostare i blocchi del puzzle nelle posizioni valide, se viene spostato il blocco più grande (dimensione 2x2) nell&#39;uscita, il puzzle viene risolto ed il player ritorna alla schermata iniziale, altrimenti la configurazione viene aggiornata con l&#39;ultima mossa compiuta dal player.&lt;br&gt;E&#39; disponibile anche un contatore delle mosse eseguite, che viene incrementato ad ogni mossa compiuta dal player." style="rounded=0;whiteSpace=wrap;html=1;align=left;" parent="WIyWlLk6GJQsqaUBKTNV-1" vertex="1">
          <mxGeometry x="180" y="120" width="270" height="150" as="geometry" />
        </mxCell>
        <mxCell id="Z9cJgejyRqe7Ohu0V2KV-11" value="ATTORE PRINCIPALE" style="rounded=0;whiteSpace=wrap;html=1;" parent="WIyWlLk6GJQsqaUBKTNV-1" vertex="1">
          <mxGeometry x="60" y="270" width="120" height="30" as="geometry" />
        </mxCell>
        <mxCell id="Z9cJgejyRqe7Ohu0V2KV-12" value="Player umano" style="rounded=0;whiteSpace=wrap;html=1;align=left;" parent="WIyWlLk6GJQsqaUBKTNV-1" vertex="1">
          <mxGeometry x="180" y="270" width="270" height="30" as="geometry" />
        </mxCell>
        <mxCell id="Z9cJgejyRqe7Ohu0V2KV-13" value="ATTORE SECONDARIO" style="rounded=0;whiteSpace=wrap;html=1;" parent="WIyWlLk6GJQsqaUBKTNV-1" vertex="1">
          <mxGeometry x="60" y="300" width="120" height="30" as="geometry" />
        </mxCell>
        <mxCell id="Z9cJgejyRqe7Ohu0V2KV-14" value="Nessuno" style="rounded=0;whiteSpace=wrap;html=1;align=left;" parent="WIyWlLk6GJQsqaUBKTNV-1" vertex="1">
          <mxGeometry x="180" y="300" width="270" height="30" as="geometry" />
        </mxCell>
        <mxCell id="Z9cJgejyRqe7Ohu0V2KV-15" value="SCENARIO PRINCIPALE" style="rounded=0;whiteSpace=wrap;html=1;" parent="WIyWlLk6GJQsqaUBKTNV-1" vertex="1">
          <mxGeometry x="60" y="400" width="120" height="160" as="geometry" />
        </mxCell>
        <mxCell id="Z9cJgejyRqe7Ohu0V2KV-16" value="1. Selezione del blocco da muovere e spostamento in una posizione valida, se il blocco mosso non è il blocco più grande, si procede con il passo 2 dello scenario principale, altrimenti si continua con il passo 1a dello scenario secondario.&lt;br&gt;2. La configurazione del puzzle viene aggiornata con la nuova mossa eseguita ed il contatore delle mosse viene incrementato.&lt;br&gt;&amp;nbsp;3.Use case termina" style="rounded=0;whiteSpace=wrap;html=1;align=left;" parent="WIyWlLk6GJQsqaUBKTNV-1" vertex="1">
          <mxGeometry x="180" y="400" width="270" height="160" as="geometry" />
        </mxCell>
        <mxCell id="Z9cJgejyRqe7Ohu0V2KV-17" value="SCENARIO SECONDARIO" style="rounded=0;whiteSpace=wrap;html=1;" parent="WIyWlLk6GJQsqaUBKTNV-1" vertex="1">
          <mxGeometry x="60" y="560" width="120" height="120" as="geometry" />
        </mxCell>
        <mxCell id="Z9cJgejyRqe7Ohu0V2KV-18" value="1a. Viene controllato se l&#39; ultima mossa eseguita comporta la risoluzione del puzzle, in tal caso si procede con il passo 1b dello scenario secondario, altrimenti si procede con il passo 2 dello scenario principale.&lt;br&gt;1b. Gioco terminato&lt;br&gt;1c Use case termina" style="rounded=0;whiteSpace=wrap;html=1;align=left;" parent="WIyWlLk6GJQsqaUBKTNV-1" vertex="1">
          <mxGeometry x="180" y="560" width="270" height="120" as="geometry" />
        </mxCell>
        <mxCell id="rijCQCUXrCSX2gsLXGVs-0" value="PRECONDIZIONI" style="rounded=0;whiteSpace=wrap;html=1;" parent="WIyWlLk6GJQsqaUBKTNV-1" vertex="1">
          <mxGeometry x="60" y="330" width="120" height="30" as="geometry" />
        </mxCell>
        <mxCell id="rijCQCUXrCSX2gsLXGVs-1" value="Nessuna" style="rounded=0;whiteSpace=wrap;html=1;align=left;" parent="WIyWlLk6GJQsqaUBKTNV-1" vertex="1">
          <mxGeometry x="180" y="330" width="270" height="30" as="geometry" />
        </mxCell>
        <mxCell id="rijCQCUXrCSX2gsLXGVs-2" value="POSTCONDIZIONI" style="rounded=0;whiteSpace=wrap;html=1;" parent="WIyWlLk6GJQsqaUBKTNV-1" vertex="1">
          <mxGeometry x="60" y="360" width="120" height="40" as="geometry" />
        </mxCell>
        <mxCell id="rijCQCUXrCSX2gsLXGVs-3" value="Aggiornamento configurazione puzzle e contatore mosse" style="rounded=0;whiteSpace=wrap;html=1;align=left;" parent="WIyWlLk6GJQsqaUBKTNV-1" vertex="1">
          <mxGeometry x="180" y="360" width="270" height="40" as="geometry" />
        </mxCell>
      </root>
    </mxGraphModel>
  </diagram>
  <diagram id="pKPz2XLxpl0RZx-qnPhC" name="Pagina-2">
    <mxGraphModel dx="864" dy="516" grid="1" gridSize="10" guides="1" tooltips="1" connect="1" arrows="1" fold="1" page="1" pageScale="1" pageWidth="827" pageHeight="1169" math="0" shadow="0">
      <root>
        <mxCell id="0" />
        <mxCell id="1" parent="0" />
        <mxCell id="-IWkAl3KDyX-OfzRfDS2-1" value="USE CASE ID" style="rounded=0;whiteSpace=wrap;html=1;" parent="1" vertex="1">
          <mxGeometry x="70" y="140" width="120" height="20" as="geometry" />
        </mxCell>
        <mxCell id="-IWkAl3KDyX-OfzRfDS2-2" value="KLOTSKI_UC2" style="rounded=0;whiteSpace=wrap;html=1;align=left;" parent="1" vertex="1">
          <mxGeometry x="190" y="140" width="270" height="20" as="geometry" />
        </mxCell>
        <mxCell id="-IWkAl3KDyX-OfzRfDS2-3" value="NOME USE CASE" style="rounded=0;whiteSpace=wrap;html=1;" parent="1" vertex="1">
          <mxGeometry x="70" y="160" width="120" height="20" as="geometry" />
        </mxCell>
        <mxCell id="-IWkAl3KDyX-OfzRfDS2-4" value="SCELTA DELLA CONFIGURAZIONE" style="rounded=0;whiteSpace=wrap;html=1;align=left;" parent="1" vertex="1">
          <mxGeometry x="190" y="160" width="270" height="20" as="geometry" />
        </mxCell>
        <mxCell id="-IWkAl3KDyX-OfzRfDS2-5" value="DESCRIZIONE" style="rounded=0;whiteSpace=wrap;html=1;" parent="1" vertex="1">
          <mxGeometry x="70" y="180" width="120" height="100" as="geometry" />
        </mxCell>
        <mxCell id="-IWkAl3KDyX-OfzRfDS2-6" value="Questa Use Case permette al player umano di scegliere tra 4 configurazioni di puzzle possibili" style="rounded=0;whiteSpace=wrap;html=1;align=left;" parent="1" vertex="1">
          <mxGeometry x="190" y="180" width="270" height="100" as="geometry" />
        </mxCell>
        <mxCell id="-IWkAl3KDyX-OfzRfDS2-7" value="ATTORE PRINCIPALE" style="rounded=0;whiteSpace=wrap;html=1;" parent="1" vertex="1">
          <mxGeometry x="70" y="280" width="120" height="30" as="geometry" />
        </mxCell>
        <mxCell id="-IWkAl3KDyX-OfzRfDS2-8" value="Player umano" style="rounded=0;whiteSpace=wrap;html=1;align=left;" parent="1" vertex="1">
          <mxGeometry x="190" y="280" width="270" height="30" as="geometry" />
        </mxCell>
        <mxCell id="-IWkAl3KDyX-OfzRfDS2-9" value="ATTORE SECONDARIO" style="rounded=0;whiteSpace=wrap;html=1;" parent="1" vertex="1">
          <mxGeometry x="70" y="310" width="120" height="30" as="geometry" />
        </mxCell>
        <mxCell id="-IWkAl3KDyX-OfzRfDS2-10" value="Nessuno" style="rounded=0;whiteSpace=wrap;html=1;align=left;" parent="1" vertex="1">
          <mxGeometry x="190" y="310" width="270" height="30" as="geometry" />
        </mxCell>
        <mxCell id="-IWkAl3KDyX-OfzRfDS2-11" value="SCENARIO PRINCIPALE" style="rounded=0;whiteSpace=wrap;html=1;" parent="1" vertex="1">
          <mxGeometry x="70" y="410" width="120" height="100" as="geometry" />
        </mxCell>
        <mxCell id="-IWkAl3KDyX-OfzRfDS2-12" value="1. Viene selezionata una delle quattro configurazioni possibili, che determinano ciascuna una diversa allocazione dei blocchi.&lt;br&gt;2. Il puzzle viene aggiornato con la configurazione scelta ed il contatore delle mosse viene azzerato&lt;br&gt;3.Use case termina" style="rounded=0;whiteSpace=wrap;html=1;align=left;" parent="1" vertex="1">
          <mxGeometry x="190" y="410" width="270" height="100" as="geometry" />
        </mxCell>
        <mxCell id="Z8N0AmiiejyroqPuoZem-1" value="PRECONDIZIONI" style="rounded=0;whiteSpace=wrap;html=1;" parent="1" vertex="1">
          <mxGeometry x="70" y="340" width="120" height="30" as="geometry" />
        </mxCell>
        <mxCell id="Z8N0AmiiejyroqPuoZem-2" value="Nessuna" style="rounded=0;whiteSpace=wrap;html=1;align=left;" parent="1" vertex="1">
          <mxGeometry x="190" y="340" width="270" height="30" as="geometry" />
        </mxCell>
        <mxCell id="Z8N0AmiiejyroqPuoZem-3" value="POSTCONDIZIONI" style="rounded=0;whiteSpace=wrap;html=1;" parent="1" vertex="1">
          <mxGeometry x="70" y="370" width="120" height="40" as="geometry" />
        </mxCell>
        <mxCell id="Z8N0AmiiejyroqPuoZem-4" value="Aggiornamento configurazione puzzle e reset contatore mosse" style="rounded=0;whiteSpace=wrap;html=1;align=left;" parent="1" vertex="1">
          <mxGeometry x="190" y="370" width="270" height="40" as="geometry" />
        </mxCell>
      </root>
    </mxGraphModel>
  </diagram>
  <diagram id="ILhxvOS_OZRDJFTvhZ-f" name="Pagina-3">
    <mxGraphModel dx="825" dy="484" grid="1" gridSize="10" guides="1" tooltips="1" connect="1" arrows="1" fold="1" page="1" pageScale="1" pageWidth="827" pageHeight="1169" math="0" shadow="0">
      <root>
        <mxCell id="0" />
        <mxCell id="1" parent="0" />
        <mxCell id="4MF6Z0OL2hzy9xlrW8wL-1" value="USE CASE ID" style="rounded=0;whiteSpace=wrap;html=1;" vertex="1" parent="1">
          <mxGeometry x="130" y="170" width="120" height="20" as="geometry" />
        </mxCell>
        <mxCell id="4MF6Z0OL2hzy9xlrW8wL-2" value="KLOTSKI_UC3" style="rounded=0;whiteSpace=wrap;html=1;align=left;" vertex="1" parent="1">
          <mxGeometry x="250" y="170" width="270" height="20" as="geometry" />
        </mxCell>
        <mxCell id="4MF6Z0OL2hzy9xlrW8wL-3" value="NOME USE CASE" style="rounded=0;whiteSpace=wrap;html=1;" vertex="1" parent="1">
          <mxGeometry x="130" y="190" width="120" height="20" as="geometry" />
        </mxCell>
        <mxCell id="4MF6Z0OL2hzy9xlrW8wL-4" value="RESET PUZZLE" style="rounded=0;whiteSpace=wrap;html=1;align=left;" vertex="1" parent="1">
          <mxGeometry x="250" y="190" width="270" height="20" as="geometry" />
        </mxCell>
        <mxCell id="4MF6Z0OL2hzy9xlrW8wL-5" value="DESCRIZIONE" style="rounded=0;whiteSpace=wrap;html=1;" vertex="1" parent="1">
          <mxGeometry x="130" y="210" width="120" height="70" as="geometry" />
        </mxCell>
        <mxCell id="4MF6Z0OL2hzy9xlrW8wL-6" value="Questa use case permette ad un player umano di resettare il gioco alla configurazione scelta inizialmente." style="rounded=0;whiteSpace=wrap;html=1;align=left;" vertex="1" parent="1">
          <mxGeometry x="250" y="210" width="270" height="70" as="geometry" />
        </mxCell>
        <mxCell id="4MF6Z0OL2hzy9xlrW8wL-7" value="ATTORE PRINCIPALE" style="rounded=0;whiteSpace=wrap;html=1;" vertex="1" parent="1">
          <mxGeometry x="130" y="280" width="120" height="30" as="geometry" />
        </mxCell>
        <mxCell id="4MF6Z0OL2hzy9xlrW8wL-8" value="Player umano" style="rounded=0;whiteSpace=wrap;html=1;align=left;" vertex="1" parent="1">
          <mxGeometry x="250" y="280" width="270" height="30" as="geometry" />
        </mxCell>
        <mxCell id="4MF6Z0OL2hzy9xlrW8wL-9" value="ATTORE SECONDARIO" style="rounded=0;whiteSpace=wrap;html=1;" vertex="1" parent="1">
          <mxGeometry x="130" y="310" width="120" height="30" as="geometry" />
        </mxCell>
        <mxCell id="4MF6Z0OL2hzy9xlrW8wL-10" value="Nessuno" style="rounded=0;whiteSpace=wrap;html=1;align=left;" vertex="1" parent="1">
          <mxGeometry x="250" y="310" width="270" height="30" as="geometry" />
        </mxCell>
        <mxCell id="4MF6Z0OL2hzy9xlrW8wL-11" value="SCENARIO PRINCIPALE" style="rounded=0;whiteSpace=wrap;html=1;" vertex="1" parent="1">
          <mxGeometry x="130" y="410" width="120" height="80" as="geometry" />
        </mxCell>
        <mxCell id="4MF6Z0OL2hzy9xlrW8wL-12" value="1. Il player seleziona l&#39;opzione di reset&lt;br&gt;2. Il puzzle viene aggiornato con la configurazione scelta inizialmente ed il contatore delle mosse viene azzerato&lt;br&gt;3.Use case termina" style="rounded=0;whiteSpace=wrap;html=1;align=left;" vertex="1" parent="1">
          <mxGeometry x="250" y="410" width="270" height="80" as="geometry" />
        </mxCell>
        <mxCell id="Enect5zfEa1wnKbDiNv3-1" value="PRECONDIZIONI" style="rounded=0;whiteSpace=wrap;html=1;" vertex="1" parent="1">
          <mxGeometry x="130" y="340" width="120" height="30" as="geometry" />
        </mxCell>
        <mxCell id="Enect5zfEa1wnKbDiNv3-2" value="Nessuna" style="rounded=0;whiteSpace=wrap;html=1;align=left;" vertex="1" parent="1">
          <mxGeometry x="250" y="340" width="270" height="30" as="geometry" />
        </mxCell>
        <mxCell id="Enect5zfEa1wnKbDiNv3-3" value="POSTCONDIZIONI" style="rounded=0;whiteSpace=wrap;html=1;" vertex="1" parent="1">
          <mxGeometry x="130" y="370" width="120" height="40" as="geometry" />
        </mxCell>
        <mxCell id="Enect5zfEa1wnKbDiNv3-4" value="Aggiornamento configurazione puzzle e reset contatore mosse" style="rounded=0;whiteSpace=wrap;html=1;align=left;" vertex="1" parent="1">
          <mxGeometry x="250" y="370" width="270" height="40" as="geometry" />
        </mxCell>
      </root>
    </mxGraphModel>
  </diagram>
  <diagram id="DnRmqbMWjBS9plQe3uC_" name="Pagina-4">
    <mxGraphModel dx="864" dy="516" grid="1" gridSize="10" guides="1" tooltips="1" connect="1" arrows="1" fold="1" page="1" pageScale="1" pageWidth="827" pageHeight="1169" math="0" shadow="0">
      <root>
        <mxCell id="0" />
        <mxCell id="1" parent="0" />
        <mxCell id="ZY0sUwfMhTY6GB1cCbDv-1" value="USE CASE ID" style="rounded=0;whiteSpace=wrap;html=1;" parent="1" vertex="1">
          <mxGeometry x="60" y="650" width="120" height="20" as="geometry" />
        </mxCell>
        <mxCell id="ZY0sUwfMhTY6GB1cCbDv-2" value="KLOTSKI_UC4" style="rounded=0;whiteSpace=wrap;html=1;align=left;" parent="1" vertex="1">
          <mxGeometry x="180" y="650" width="270" height="20" as="geometry" />
        </mxCell>
        <mxCell id="ZY0sUwfMhTY6GB1cCbDv-3" value="NOME USE CASE" style="rounded=0;whiteSpace=wrap;html=1;" parent="1" vertex="1">
          <mxGeometry x="60" y="670" width="120" height="20" as="geometry" />
        </mxCell>
        <mxCell id="ZY0sUwfMhTY6GB1cCbDv-4" value="UNDO" style="rounded=0;whiteSpace=wrap;html=1;align=left;" parent="1" vertex="1">
          <mxGeometry x="180" y="670" width="270" height="20" as="geometry" />
        </mxCell>
        <mxCell id="ZY0sUwfMhTY6GB1cCbDv-5" value="DESCRIZIONE" style="rounded=0;whiteSpace=wrap;html=1;" parent="1" vertex="1">
          <mxGeometry x="60" y="690" width="120" height="70" as="geometry" />
        </mxCell>
        <mxCell id="ZY0sUwfMhTY6GB1cCbDv-6" value="Questa use case permette di ripristinare la configurazione precedente all&#39;ultima operazione di &quot;movimento blocco&quot; eseguita dal player" style="rounded=0;whiteSpace=wrap;html=1;align=left;" parent="1" vertex="1">
          <mxGeometry x="180" y="690" width="270" height="70" as="geometry" />
        </mxCell>
        <mxCell id="ZY0sUwfMhTY6GB1cCbDv-7" value="ATTORE PRINCIPALE" style="rounded=0;whiteSpace=wrap;html=1;" parent="1" vertex="1">
          <mxGeometry x="60" y="760" width="120" height="30" as="geometry" />
        </mxCell>
        <mxCell id="ZY0sUwfMhTY6GB1cCbDv-8" value="Player umano" style="rounded=0;whiteSpace=wrap;html=1;align=left;" parent="1" vertex="1">
          <mxGeometry x="180" y="760" width="270" height="30" as="geometry" />
        </mxCell>
        <mxCell id="ZY0sUwfMhTY6GB1cCbDv-9" value="ATTORE SECONDARIO" style="rounded=0;whiteSpace=wrap;html=1;" parent="1" vertex="1">
          <mxGeometry x="60" y="790" width="120" height="30" as="geometry" />
        </mxCell>
        <mxCell id="ZY0sUwfMhTY6GB1cCbDv-10" value="Nessuno" style="rounded=0;whiteSpace=wrap;html=1;align=left;" parent="1" vertex="1">
          <mxGeometry x="180" y="790" width="270" height="30" as="geometry" />
        </mxCell>
        <mxCell id="ZY0sUwfMhTY6GB1cCbDv-11" value="SCENARIO PRINCIPALE" style="rounded=0;whiteSpace=wrap;html=1;" parent="1" vertex="1">
          <mxGeometry x="60" y="890" width="120" height="140" as="geometry" />
        </mxCell>
        <mxCell id="ZY0sUwfMhTY6GB1cCbDv-12" value="1. Viene selezionato l&#39;undo, se la configurazione corrente non è quella iniziale e quindi sono state eseguite delle mosse, procedi con il punto 2 dello scenario principale, altrimenti continua con il punto 1a dello scenario secondario&lt;br&gt;2. Viene ripristinata la configurazione del puzzle antecedente all&#39;ultima mossa effettuata dal player&lt;br&gt;3.Use case termina" style="rounded=0;whiteSpace=wrap;html=1;align=left;" parent="1" vertex="1">
          <mxGeometry x="180" y="890" width="270" height="120" as="geometry" />
        </mxCell>
        <mxCell id="X5Sj6ya1pfOhAW-x1zuK-1" value="SCENARIO SECONDARIO" style="rounded=0;whiteSpace=wrap;html=1;" parent="1" vertex="1">
          <mxGeometry x="60" y="1010" width="120" height="70" as="geometry" />
        </mxCell>
        <mxCell id="X5Sj6ya1pfOhAW-x1zuK-2" value="1a. Siccome non sono state effettuate delle mosse, l&#39;operazione di undo non fa nessuna modifica&lt;br&gt;1b.Use case termina" style="rounded=0;whiteSpace=wrap;html=1;align=left;" parent="1" vertex="1">
          <mxGeometry x="180" y="1010" width="270" height="70" as="geometry" />
        </mxCell>
        <mxCell id="Iu-hRbwxY7zxrQFSCfEu-1" value="PRECONDIZIONI" style="rounded=0;whiteSpace=wrap;html=1;" parent="1" vertex="1">
          <mxGeometry x="60" y="820" width="120" height="30" as="geometry" />
        </mxCell>
        <mxCell id="Iu-hRbwxY7zxrQFSCfEu-2" value="Nessuna" style="rounded=0;whiteSpace=wrap;html=1;align=left;" parent="1" vertex="1">
          <mxGeometry x="180" y="820" width="270" height="30" as="geometry" />
        </mxCell>
        <mxCell id="Iu-hRbwxY7zxrQFSCfEu-3" value="POSTCONDIZIONI" style="rounded=0;whiteSpace=wrap;html=1;" parent="1" vertex="1">
          <mxGeometry x="60" y="850" width="120" height="40" as="geometry" />
        </mxCell>
        <mxCell id="Iu-hRbwxY7zxrQFSCfEu-4" value="Aggiornamento configurazione puzzle e contatore mosse" style="rounded=0;whiteSpace=wrap;html=1;align=left;" parent="1" vertex="1">
          <mxGeometry x="180" y="850" width="270" height="40" as="geometry" />
        </mxCell>
      </root>
    </mxGraphModel>
  </diagram>
  <diagram id="V5P4K3WfPPONbcwfy6k1" name="Pagina-5">
    <mxGraphModel dx="864" dy="516" grid="1" gridSize="10" guides="1" tooltips="1" connect="1" arrows="1" fold="1" page="1" pageScale="1" pageWidth="827" pageHeight="1169" math="0" shadow="0">
      <root>
        <mxCell id="0" />
        <mxCell id="1" parent="0" />
        <mxCell id="vNPnYw2U4IUY8rXyYEH2-1" value="USE CASE ID" style="rounded=0;whiteSpace=wrap;html=1;" parent="1" vertex="1">
          <mxGeometry x="70" y="70" width="120" height="20" as="geometry" />
        </mxCell>
        <mxCell id="vNPnYw2U4IUY8rXyYEH2-2" value="KLOTSKI_UC5" style="rounded=0;whiteSpace=wrap;html=1;align=left;" parent="1" vertex="1">
          <mxGeometry x="190" y="70" width="270" height="20" as="geometry" />
        </mxCell>
        <mxCell id="vNPnYw2U4IUY8rXyYEH2-3" value="NOME USE CASE" style="rounded=0;whiteSpace=wrap;html=1;" parent="1" vertex="1">
          <mxGeometry x="70" y="90" width="120" height="20" as="geometry" />
        </mxCell>
        <mxCell id="vNPnYw2U4IUY8rXyYEH2-4" value="NEXT BEST MOVE" style="rounded=0;whiteSpace=wrap;html=1;align=left;" parent="1" vertex="1">
          <mxGeometry x="190" y="90" width="270" height="20" as="geometry" />
        </mxCell>
        <mxCell id="vNPnYw2U4IUY8rXyYEH2-5" value="DESCRIZIONE" style="rounded=0;whiteSpace=wrap;html=1;" parent="1" vertex="1">
          <mxGeometry x="70" y="110" width="120" height="70" as="geometry" />
        </mxCell>
        <mxCell id="vNPnYw2U4IUY8rXyYEH2-6" value="Questa use case fornisce al player richiedente, la prossima mossa migliore suggerita da un solver, ossia un algoritmo progettato per risolvere il puzzle" style="rounded=0;whiteSpace=wrap;html=1;align=left;" parent="1" vertex="1">
          <mxGeometry x="190" y="110" width="270" height="70" as="geometry" />
        </mxCell>
        <mxCell id="vNPnYw2U4IUY8rXyYEH2-7" value="ATTORE PRINCIPALE" style="rounded=0;whiteSpace=wrap;html=1;" parent="1" vertex="1">
          <mxGeometry x="70" y="180" width="120" height="30" as="geometry" />
        </mxCell>
        <mxCell id="vNPnYw2U4IUY8rXyYEH2-8" value="Player umano" style="rounded=0;whiteSpace=wrap;html=1;align=left;" parent="1" vertex="1">
          <mxGeometry x="190" y="180" width="270" height="30" as="geometry" />
        </mxCell>
        <mxCell id="vNPnYw2U4IUY8rXyYEH2-9" value="ATTORE SECONDARIO" style="rounded=0;whiteSpace=wrap;html=1;" parent="1" vertex="1">
          <mxGeometry x="70" y="210" width="120" height="30" as="geometry" />
        </mxCell>
        <mxCell id="vNPnYw2U4IUY8rXyYEH2-10" value="Solver" style="rounded=0;whiteSpace=wrap;html=1;align=left;" parent="1" vertex="1">
          <mxGeometry x="190" y="210" width="270" height="30" as="geometry" />
        </mxCell>
        <mxCell id="vNPnYw2U4IUY8rXyYEH2-11" value="SCENARIO PRINCIPALE" style="rounded=0;whiteSpace=wrap;html=1;" parent="1" vertex="1">
          <mxGeometry x="70" y="310" width="120" height="70" as="geometry" />
        </mxCell>
        <mxCell id="vNPnYw2U4IUY8rXyYEH2-12" value="1. Il player seleziona l&#39;opzione di &quot;best next move&quot;&lt;br&gt;2.La configurazione del puzzle viene aggiornata con la mossa decisa dal solver&lt;br&gt;3.Use case termina" style="rounded=0;whiteSpace=wrap;html=1;align=left;" parent="1" vertex="1">
          <mxGeometry x="190" y="310" width="270" height="70" as="geometry" />
        </mxCell>
        <mxCell id="G2XVoCTNt7BKkMK-SsFf-1" value="PRECONDIZIONI" style="rounded=0;whiteSpace=wrap;html=1;" parent="1" vertex="1">
          <mxGeometry x="70" y="240" width="120" height="30" as="geometry" />
        </mxCell>
        <mxCell id="G2XVoCTNt7BKkMK-SsFf-2" value="Nessuna" style="rounded=0;whiteSpace=wrap;html=1;align=left;" parent="1" vertex="1">
          <mxGeometry x="190" y="240" width="270" height="30" as="geometry" />
        </mxCell>
        <mxCell id="G2XVoCTNt7BKkMK-SsFf-3" value="POSTCONDIZIONI" style="rounded=0;whiteSpace=wrap;html=1;" parent="1" vertex="1">
          <mxGeometry x="70" y="270" width="120" height="40" as="geometry" />
        </mxCell>
        <mxCell id="G2XVoCTNt7BKkMK-SsFf-4" value="Aggiornamento configurazione puzzle e reset contatore mosse" style="rounded=0;whiteSpace=wrap;html=1;align=left;" parent="1" vertex="1">
          <mxGeometry x="190" y="270" width="270" height="40" as="geometry" />
        </mxCell>
      </root>
    </mxGraphModel>
  </diagram>
  <diagram id="tqLXylDOl2TSAJBHVHmB" name="Pagina-6">
    <mxGraphModel dx="1691" dy="516" grid="1" gridSize="10" guides="1" tooltips="1" connect="1" arrows="1" fold="1" page="1" pageScale="1" pageWidth="827" pageHeight="1169" math="0" shadow="0">
      <root>
        <mxCell id="0" />
        <mxCell id="1" parent="0" />
        <mxCell id="YxiQOCR2O4YNO2LUmIw0-1" value="USE CASE ID" style="rounded=0;whiteSpace=wrap;html=1;" parent="1" vertex="1">
          <mxGeometry x="-40" y="90" width="120" height="20" as="geometry" />
        </mxCell>
        <mxCell id="YxiQOCR2O4YNO2LUmIw0-2" value="KLOTSKI_UC6" style="rounded=0;whiteSpace=wrap;html=1;align=left;" parent="1" vertex="1">
          <mxGeometry x="80" y="90" width="270" height="20" as="geometry" />
        </mxCell>
        <mxCell id="YxiQOCR2O4YNO2LUmIw0-3" value="NOME USE CASE" style="rounded=0;whiteSpace=wrap;html=1;" parent="1" vertex="1">
          <mxGeometry x="-40" y="110" width="120" height="20" as="geometry" />
        </mxCell>
        <mxCell id="YxiQOCR2O4YNO2LUmIw0-4" value="SALVATAGGIO" style="rounded=0;whiteSpace=wrap;html=1;align=left;" parent="1" vertex="1">
          <mxGeometry x="80" y="110" width="270" height="20" as="geometry" />
        </mxCell>
        <mxCell id="YxiQOCR2O4YNO2LUmIw0-5" value="DESCRIZIONE" style="rounded=0;whiteSpace=wrap;html=1;" parent="1" vertex="1">
          <mxGeometry x="-40" y="130" width="120" height="70" as="geometry" />
        </mxCell>
        <mxCell id="YxiQOCR2O4YNO2LUmIw0-6" value="Questa use case permette di salvare lo stato corrente del puzzle" style="rounded=0;whiteSpace=wrap;html=1;align=left;" parent="1" vertex="1">
          <mxGeometry x="80" y="130" width="270" height="70" as="geometry" />
        </mxCell>
        <mxCell id="YxiQOCR2O4YNO2LUmIw0-7" value="ATTORE PRINCIPALE" style="rounded=0;whiteSpace=wrap;html=1;" parent="1" vertex="1">
          <mxGeometry x="-40" y="200" width="120" height="30" as="geometry" />
        </mxCell>
        <mxCell id="YxiQOCR2O4YNO2LUmIw0-8" value="Player umano" style="rounded=0;whiteSpace=wrap;html=1;align=left;" parent="1" vertex="1">
          <mxGeometry x="80" y="200" width="270" height="30" as="geometry" />
        </mxCell>
        <mxCell id="YxiQOCR2O4YNO2LUmIw0-9" value="ATTORE SECONDARIO" style="rounded=0;whiteSpace=wrap;html=1;" parent="1" vertex="1">
          <mxGeometry x="-40" y="230" width="120" height="30" as="geometry" />
        </mxCell>
        <mxCell id="YxiQOCR2O4YNO2LUmIw0-10" value="Nessuno" style="rounded=0;whiteSpace=wrap;html=1;align=left;" parent="1" vertex="1">
          <mxGeometry x="80" y="230" width="270" height="30" as="geometry" />
        </mxCell>
        <mxCell id="YxiQOCR2O4YNO2LUmIw0-11" value="SCENARIO PRINCIPALE" style="rounded=0;whiteSpace=wrap;html=1;" parent="1" vertex="1">
          <mxGeometry x="-40" y="330" width="120" height="60" as="geometry" />
        </mxCell>
        <mxCell id="YxiQOCR2O4YNO2LUmIw0-12" value="1. Viene salvata la configurazione corrente del puzzle&lt;br&gt;2.Use case termina" style="rounded=0;whiteSpace=wrap;html=1;align=left;" parent="1" vertex="1">
          <mxGeometry x="80" y="330" width="270" height="60" as="geometry" />
        </mxCell>
        <mxCell id="V6BliVFhtcMXv1JB2KkM-1" value="PRECONDIZIONI" style="rounded=0;whiteSpace=wrap;html=1;" parent="1" vertex="1">
          <mxGeometry x="-40" y="260" width="120" height="30" as="geometry" />
        </mxCell>
        <mxCell id="V6BliVFhtcMXv1JB2KkM-2" value="Nessuna" style="rounded=0;whiteSpace=wrap;html=1;align=left;" parent="1" vertex="1">
          <mxGeometry x="80" y="260" width="270" height="30" as="geometry" />
        </mxCell>
        <mxCell id="V6BliVFhtcMXv1JB2KkM-3" value="POSTCONDIZIONI" style="rounded=0;whiteSpace=wrap;html=1;" parent="1" vertex="1">
          <mxGeometry x="-40" y="290" width="120" height="40" as="geometry" />
        </mxCell>
        <mxCell id="V6BliVFhtcMXv1JB2KkM-4" value="Stato corrente salvato" style="rounded=0;whiteSpace=wrap;html=1;align=left;" parent="1" vertex="1">
          <mxGeometry x="80" y="290" width="270" height="40" as="geometry" />
        </mxCell>
      </root>
    </mxGraphModel>
  </diagram>
  <diagram id="074_dhfwsbiyVY0b6TEc" name="Pagina-7">
    <mxGraphModel dx="864" dy="516" grid="1" gridSize="10" guides="1" tooltips="1" connect="1" arrows="1" fold="1" page="1" pageScale="1" pageWidth="827" pageHeight="1169" math="0" shadow="0">
      <root>
        <mxCell id="0" />
        <mxCell id="1" parent="0" />
        <mxCell id="ox3wkOwNIEcgljUBcGOF-1" value="USE CASE ID" style="rounded=0;whiteSpace=wrap;html=1;" parent="1" vertex="1">
          <mxGeometry x="60" y="300" width="120" height="20" as="geometry" />
        </mxCell>
        <mxCell id="ox3wkOwNIEcgljUBcGOF-2" value="KLOTSKI_UC7" style="rounded=0;whiteSpace=wrap;html=1;align=left;" parent="1" vertex="1">
          <mxGeometry x="180" y="300" width="270" height="20" as="geometry" />
        </mxCell>
        <mxCell id="ox3wkOwNIEcgljUBcGOF-3" value="NOME USE CASE" style="rounded=0;whiteSpace=wrap;html=1;" parent="1" vertex="1">
          <mxGeometry x="60" y="320" width="120" height="20" as="geometry" />
        </mxCell>
        <mxCell id="ox3wkOwNIEcgljUBcGOF-4" value="RIPRISTINO&amp;nbsp;" style="rounded=0;whiteSpace=wrap;html=1;align=left;" parent="1" vertex="1">
          <mxGeometry x="180" y="320" width="270" height="20" as="geometry" />
        </mxCell>
        <mxCell id="ox3wkOwNIEcgljUBcGOF-5" value="DESCRIZIONE" style="rounded=0;whiteSpace=wrap;html=1;" parent="1" vertex="1">
          <mxGeometry x="60" y="340" width="120" height="70" as="geometry" />
        </mxCell>
        <mxCell id="ox3wkOwNIEcgljUBcGOF-6" value="Questa use case permette di ripristinare un precedente salvataggio" style="rounded=0;whiteSpace=wrap;html=1;align=left;" parent="1" vertex="1">
          <mxGeometry x="180" y="340" width="270" height="70" as="geometry" />
        </mxCell>
        <mxCell id="ox3wkOwNIEcgljUBcGOF-7" value="ATTORE PRINCIPALE" style="rounded=0;whiteSpace=wrap;html=1;" parent="1" vertex="1">
          <mxGeometry x="60" y="410" width="120" height="30" as="geometry" />
        </mxCell>
        <mxCell id="ox3wkOwNIEcgljUBcGOF-8" value="Player umano" style="rounded=0;whiteSpace=wrap;html=1;align=left;" parent="1" vertex="1">
          <mxGeometry x="180" y="410" width="270" height="30" as="geometry" />
        </mxCell>
        <mxCell id="ox3wkOwNIEcgljUBcGOF-9" value="ATTORE SECONDARIO" style="rounded=0;whiteSpace=wrap;html=1;" parent="1" vertex="1">
          <mxGeometry x="60" y="440" width="120" height="30" as="geometry" />
        </mxCell>
        <mxCell id="ox3wkOwNIEcgljUBcGOF-10" value="Nessuno" style="rounded=0;whiteSpace=wrap;html=1;align=left;" parent="1" vertex="1">
          <mxGeometry x="180" y="440" width="270" height="30" as="geometry" />
        </mxCell>
        <mxCell id="ox3wkOwNIEcgljUBcGOF-11" value="SCENARIO PRINCIPALE" style="rounded=0;whiteSpace=wrap;html=1;" parent="1" vertex="1">
          <mxGeometry x="60" y="535" width="120" height="75" as="geometry" />
        </mxCell>
        <mxCell id="ox3wkOwNIEcgljUBcGOF-12" value="1.Viene ripristinato lo stato del puzzle, se questo è stato correttamente salvato in precedenza.&lt;br&gt;2.Use case termina" style="rounded=0;whiteSpace=wrap;html=1;align=left;" parent="1" vertex="1">
          <mxGeometry x="180" y="535" width="270" height="75" as="geometry" />
        </mxCell>
        <mxCell id="Ezee-NxkH_bq-f42sjyQ-1" value="PRECONDIZIONI" style="rounded=0;whiteSpace=wrap;html=1;" parent="1" vertex="1">
          <mxGeometry x="60" y="470" width="120" height="30" as="geometry" />
        </mxCell>
        <mxCell id="Ezee-NxkH_bq-f42sjyQ-2" value="Deve esistere un precedente salvataggio" style="rounded=0;whiteSpace=wrap;html=1;align=left;" parent="1" vertex="1">
          <mxGeometry x="180" y="470" width="270" height="30" as="geometry" />
        </mxCell>
        <mxCell id="H_GFIU-mBVeGNZrga5W7-1" value="POSTCONDIZIONI" style="rounded=0;whiteSpace=wrap;html=1;" parent="1" vertex="1">
          <mxGeometry x="60" y="500" width="120" height="40" as="geometry" />
        </mxCell>
        <mxCell id="H_GFIU-mBVeGNZrga5W7-2" value="Ripristino dello stato corrente" style="rounded=0;whiteSpace=wrap;html=1;align=left;" parent="1" vertex="1">
          <mxGeometry x="180" y="500" width="270" height="40" as="geometry" />
        </mxCell>
      </root>
    </mxGraphModel>
  </diagram>
  <diagram id="RAPA7Iy1Ik5U3dOe1hCZ" name="Pagina-8">
    <mxGraphModel dx="864" dy="516" grid="1" gridSize="10" guides="1" tooltips="1" connect="1" arrows="1" fold="1" page="1" pageScale="1" pageWidth="827" pageHeight="1169" math="0" shadow="0">
      <root>
        <mxCell id="0" />
        <mxCell id="1" parent="0" />
        <mxCell id="mQ2M3VB0okKIpDe7VjnQ-1" value="USE CASE ID" style="rounded=0;whiteSpace=wrap;html=1;" vertex="1" parent="1">
          <mxGeometry x="140" y="340" width="120" height="20" as="geometry" />
        </mxCell>
        <mxCell id="mQ2M3VB0okKIpDe7VjnQ-2" value="KLOTSKI_UC8" style="rounded=0;whiteSpace=wrap;html=1;align=left;" vertex="1" parent="1">
          <mxGeometry x="260" y="340" width="270" height="20" as="geometry" />
        </mxCell>
        <mxCell id="mQ2M3VB0okKIpDe7VjnQ-3" value="NOME USE CASE" style="rounded=0;whiteSpace=wrap;html=1;" vertex="1" parent="1">
          <mxGeometry x="140" y="360" width="120" height="20" as="geometry" />
        </mxCell>
        <mxCell id="mQ2M3VB0okKIpDe7VjnQ-4" value="QUIT" style="rounded=0;whiteSpace=wrap;html=1;align=left;" vertex="1" parent="1">
          <mxGeometry x="260" y="360" width="270" height="20" as="geometry" />
        </mxCell>
        <mxCell id="mQ2M3VB0okKIpDe7VjnQ-5" value="DESCRIZIONE" style="rounded=0;whiteSpace=wrap;html=1;" vertex="1" parent="1">
          <mxGeometry x="140" y="380" width="120" height="70" as="geometry" />
        </mxCell>
        <mxCell id="mQ2M3VB0okKIpDe7VjnQ-6" value="Questa use case permette di terminare l&#39;esecuzione del programma" style="rounded=0;whiteSpace=wrap;html=1;align=left;" vertex="1" parent="1">
          <mxGeometry x="260" y="380" width="270" height="70" as="geometry" />
        </mxCell>
        <mxCell id="mQ2M3VB0okKIpDe7VjnQ-7" value="ATTORE PRINCIPALE" style="rounded=0;whiteSpace=wrap;html=1;" vertex="1" parent="1">
          <mxGeometry x="140" y="450" width="120" height="30" as="geometry" />
        </mxCell>
        <mxCell id="mQ2M3VB0okKIpDe7VjnQ-8" value="Player umano" style="rounded=0;whiteSpace=wrap;html=1;align=left;" vertex="1" parent="1">
          <mxGeometry x="260" y="450" width="270" height="30" as="geometry" />
        </mxCell>
        <mxCell id="mQ2M3VB0okKIpDe7VjnQ-9" value="ATTORE SECONDARIO" style="rounded=0;whiteSpace=wrap;html=1;" vertex="1" parent="1">
          <mxGeometry x="140" y="480" width="120" height="30" as="geometry" />
        </mxCell>
        <mxCell id="mQ2M3VB0okKIpDe7VjnQ-10" value="Nessuno" style="rounded=0;whiteSpace=wrap;html=1;align=left;" vertex="1" parent="1">
          <mxGeometry x="260" y="480" width="270" height="30" as="geometry" />
        </mxCell>
        <mxCell id="mQ2M3VB0okKIpDe7VjnQ-11" value="SCENARIO PRINCIPALE" style="rounded=0;whiteSpace=wrap;html=1;" vertex="1" parent="1">
          <mxGeometry x="140" y="575" width="120" height="75" as="geometry" />
        </mxCell>
        <mxCell id="mQ2M3VB0okKIpDe7VjnQ-12" value="1.Viene terminata l&#39;esecuzione del programma" style="rounded=0;whiteSpace=wrap;html=1;align=left;" vertex="1" parent="1">
          <mxGeometry x="260" y="575" width="270" height="75" as="geometry" />
        </mxCell>
        <mxCell id="mQ2M3VB0okKIpDe7VjnQ-13" value="PRECONDIZIONI" style="rounded=0;whiteSpace=wrap;html=1;" vertex="1" parent="1">
          <mxGeometry x="140" y="510" width="120" height="30" as="geometry" />
        </mxCell>
        <mxCell id="mQ2M3VB0okKIpDe7VjnQ-14" value="Nessuna" style="rounded=0;whiteSpace=wrap;html=1;align=left;" vertex="1" parent="1">
          <mxGeometry x="260" y="510" width="270" height="30" as="geometry" />
        </mxCell>
        <mxCell id="mQ2M3VB0okKIpDe7VjnQ-15" value="POSTCONDIZIONI" style="rounded=0;whiteSpace=wrap;html=1;" vertex="1" parent="1">
          <mxGeometry x="140" y="540" width="120" height="40" as="geometry" />
        </mxCell>
        <mxCell id="mQ2M3VB0okKIpDe7VjnQ-16" value="Nessuna" style="rounded=0;whiteSpace=wrap;html=1;align=left;" vertex="1" parent="1">
          <mxGeometry x="260" y="540" width="270" height="40" as="geometry" />
        </mxCell>
      </root>
    </mxGraphModel>
  </diagram>
</mxfile>
